<?xml version="1.0" standalone="no"?>
<!DOCTYPE svg PUBLIC "-//W3C//DTD SVG 20010904//EN"
 "http://www.w3.org/TR/2001/REC-SVG-20010904/DTD/svg10.dtd">
<svg version="1.0" xmlns="http://www.w3.org/2000/svg"
 width="512.000000pt" height="512.000000pt" viewBox="0 0 512.000000 512.000000"
 preserveAspectRatio="xMidYMid meet">
<metadata>
Created by potrace 1.11, written by Peter Selinger 2001-2013
</metadata>
<g transform="translate(0.000000,512.000000) scale(0.100000,-0.100000)"
fill="#000000" stroke="none">
<path d="M2409 4396 c-97 -33 -153 -112 -154 -214 l0 -64 -40 -23 c-22 -12
-96 -55 -165 -95 -69 -40 -210 -122 -315 -182 -104 -60 -197 -114 -205 -119
-8 -5 -82 -47 -163 -93 l-148 -85 -35 24 c-85 58 -213 39 -283 -40 l-29 -34
-239 -4 c-200 -3 -278 -8 -278 -17 0 -1 -7 -3 -16 -5 -67 -13 -192 -122 -234
-205 -119 -235 -9 -511 241 -602 55 -20 79 -21 361 -22 l303 -1 0 -332 c0
-262 -3 -333 -13 -333 -20 0 -90 -41 -115 -67 -61 -66 -75 -159 -37 -241 13
-28 37 -63 54 -78 17 -15 31 -31 31 -35 0 -5 11 -32 24 -61 47 -103 143 -187
258 -227 50 -17 88 -19 349 -21 l293 -1 60 -33 c34 -18 123 -69 199 -114 l139
-80 3 -50 c4 -61 22 -97 70 -145 126 -126 354 -42 372 136 5 55 18 71 78 102
17 8 51 27 77 42 26 16 92 54 146 85 l99 57 233 2 c190 1 243 4 285 18 120 40
205 113 258 223 17 37 39 67 47 68 24 1 93 36 122 63 39 34 68 103 68 162 0
86 -47 159 -130 204 l-35 18 -1 317 c0 174 2 317 5 317 3 1 177 2 386 4 331 2
386 4 430 19 255 89 371 368 251 604 -22 43 -88 119 -138 157 -29 24 -107 55
-157 65 -30 5 -185 10 -346 10 l-292 0 -24 29 c-45 54 -96 76 -176 76 -60 0
-77 -4 -104 -24 -18 -13 -38 -24 -44 -24 -6 0 -103 53 -215 118 -113 65 -218
126 -233 134 -16 9 -36 21 -45 26 -10 6 -137 79 -282 163 l-265 153 2 57 c2
67 -16 115 -60 160 -57 60 -152 84 -228 58z m142 -129 c43 -34 50 -137 10
-161 -9 -6 -79 -9 -142 -7 -48 2 -71 86 -38 141 37 60 113 72 170 27z m1389
-2412 c25 -8 60 -65 60 -99 0 -35 -25 -83 -51 -97 -11 -6 -22 -9 -24 -7 -2 2
-7 26 -10 53 -6 49 -13 73 -40 127 -7 14 -11 29 -8 32 6 6 38 2 73 -9z m-1360
-856 c37 -67 -27 -154 -111 -151 -77 2 -130 96 -93 163 2 4 47 6 99 6 82 0 97
-3 105 -18z"/>
<path d="M814 4274 c-68 -23 -114 -92 -114 -171 0 -55 67 -141 118 -150 46 -9
100 -4 129 10 92 48 121 180 56 257 -49 58 -118 78 -189 54z"/>
<path d="M4236 4135 c-32 -32 -34 -75 -3 -109 41 -47 112 -36 136 22 33 80
-72 148 -133 87z"/>
<path d="M403 1863 c-78 -26 -125 -88 -129 -172 -9 -202 266 -277 357 -98 78
150 -68 323 -228 270z"/>
<path d="M4096 859 c-44 -52 -29 -113 34 -139 24 -10 36 -10 60 0 65 27 79 92
31 141 -41 41 -90 40 -125 -2z"/>
</g>
</svg>
